<svg width="800" height="450" xmlns="http://www.w3.org/2000/svg">
  <style>
    .background {
      fill: #121212;
    }
    .outline {
      fill: none;
      stroke: #2A2A2A;
      stroke-width: 2;
    }
    .macbook-body {
      fill: #1E1E1E;
      stroke: #333333;
      stroke-width: 1;
    }
    .macbook-screen {
      fill: #0D0D0D;
      stroke: #333333;
      stroke-width: 0.5;
    }
    .screen-content {
      fill: #16213E;
    }
    .screen-ui {
      fill: #24385B;
    }
    .screen-accent {
      fill: #087EA4;
    }
    .screen-text {
      fill: #FFFFFF;
      opacity: 0.7;
    }
    .keyboard {
      fill: #171717;
    }
    .key {
      fill: #222222;
      stroke: #333333;
      stroke-width: 0.5;
    }
    .touchbar {
      fill: #222222;
    }
    .touchbar-content {
      fill: #333333;
    }
    .touchbar-highlight {
      fill: #0D6EFD;
      opacity: 0.8;
    }
    .trackpad {
      fill: #222222;
      stroke: #333333;
      stroke-width: 0.5;
    }
    .logo {
      fill: #555555;
    }
    .highlight {
      fill: #FFFFFF;
      opacity: 0.1;
    }
    .shadow {
      fill: #000000;
      opacity: 0.3;
    }
    .title {
      font-family: 'Arial', sans-serif;
      font-size: 24px;
      font-weight: 300;
      fill: #FFFFFF;
      text-anchor: middle;
    }
    .specs {
      font-family: 'Arial', sans-serif;
      font-size: 14px;
      fill: #BBBBBB;
      text-anchor: middle;
    }
  </style>
  <rect class="background" width="800" height="450" />
  <rect class="outline" x="10" y="10" width="780" height="430" rx="5" />
  
  <!-- Shadow beneath MacBook -->
  <ellipse class="shadow" cx="400" cy="380" rx="280" ry="20" />
  
  <!-- MacBook Base -->
  <rect class="macbook-body" x="175" y="320" width="450" height="10" rx="2" />
  <path class="macbook-body" d="M175,330 L150,360 C150,365 155,370 160,370 L640,370 C645,370 650,365 650,360 L625,330 Z" />
  
  <!-- MacBook Screen -->
  <rect class="macbook-body" x="200" y="120" width="400" height="10" rx="5" />
  <rect class="macbook-body" x="195" y="130" width="410" height="190" rx="5" />
  <rect class="macbook-screen" x="210" y="140" width="380" height="170" rx="2" />
  
  <!-- Screen Content -->
  <rect class="screen-content" x="210" y="140" width="380" height="170" rx="2" />
  
  <!-- UI Elements on Screen -->
  <!-- Menu Bar -->
  <rect class="screen-ui" x="210" y="140" width="380" height="20" />
  <circle class="screen-accent" cx="225" cy="150" r="5" />
  <circle fill="#FFBD2E" cx="240" cy="150" r="5" />
  <circle fill="#FF5F56" cx="255" cy="150" r="5" />
  
  <!-- Dock -->
  <rect class="screen-ui" x="280" y="290" width="240" height="12" rx="6" />
  
  <!-- Window -->
  <rect class="screen-ui" x="230" y="170" width="160" height="110" rx="3" />
  <rect class="screen-ui" x="230" y="170" width="160" height="15" rx="3 3 0 0" />
  <circle class="screen-accent" cx="238" cy="178" r="3" />
  <circle fill="#FFBD2E" cx="248" cy="178" r="3" />
  <circle fill="#FF5F56" cx="258" cy="178" r="3" />
  
  <!-- Code Window -->
  <rect class="screen-ui" x="400" y="170" width="170" height="110" rx="3" />
  <rect class="screen-ui" x="400" y="170" width="170" height="15" rx="3 3 0 0" />
  <circle class="screen-accent" cx="408" cy="178" r="3" />
  <circle fill="#FFBD2E" cx="418" cy="178" r="3" />
  <circle fill="#FF5F56" cx="428" cy="178" r="3" />
  
  <!-- Code Lines -->
  <rect class="screen-accent" x="410" y="195" width="80" height="3" rx="1" />
  <rect class="screen-text" x="500" y="195" width="50" height="3" rx="1" />
  
  <rect class="screen-text" x="420" y="205" width="60" height="3" rx="1" />
  <rect class="screen-accent" x="490" y="205" width="40" height="3" rx="1" />
  <rect class="screen-text" x="540" y="205" width="20" height="3" rx="1" />
  
  <rect class="screen-text" x="420" y="215" width="30" height="3" rx="1" />
  <rect class="screen-accent" x="460" y="215" width="50" height="3" rx="1" />
  <rect class="screen-text" x="520" y="215" width="40" height="3" rx="1" />
  
  <rect class="screen-text" x="410" y="225" width="70" height="3" rx="1" />
  <rect class="screen-text" x="490" y="225" width="60" height="3" rx="1" />
  
  <rect class="screen-accent" x="420" y="235" width="45" height="3" rx="1" />
  <rect class="screen-text" x="475" y="235" width="85" height="3" rx="1" />
  
  <rect class="screen-text" x="420" y="245" width="55" height="3" rx="1" />
  <rect class="screen-accent" x="485" y="245" width="35" height="3" rx="1" />
  <rect class="screen-text" x="530" y="245" width="30" height="3" rx="1" />
  
  <rect class="screen-text" x="410" y="255" width="40" height="3" rx="1" />
  <rect class="screen-text" x="460" y="255" width="60" height="3" rx="1" />
  <rect class="screen-accent" x="530" y="255" width="30" height="3" rx="1" />
  
  <!-- Browser content in left window -->
  <rect class="screen-ui" x="230" y="185" width="160" height="10" />
  <rect class="screen-accent" x="240" y="188" width="80" height="4" rx="2" />
  
  <rect class="screen-text" x="240" y="205" width="100" height="5" rx="2" />
  <rect class="screen-text" x="240" y="215" width="140" height="3" rx="1" />
  <rect class="screen-text" x="240" y="223" width="120" height="3" rx="1" />
  <rect class="screen-text" x="240" y="231" width="130" height="3" rx="1" />
  
  <rect class="screen-accent" x="240" y="245" width="30" height="10" rx="2" />
  <rect class="screen-accent" x="240" y="265" width="60" height="4" rx="1" />
  <rect class="screen-text" x="310" y="265" width="70" height="4" rx="1" />
  
  <!-- Camera -->
  <circle class="macbook-body" cx="400" cy="125" r="3" />
  <circle class="camera" cx="400" cy="125" r="1.5" fill="#333333" />
  
  <!-- Keyboard -->
  <rect class="keyboard" x="220" y="335" width="360" height="25" rx="2" />
  
  <!-- Keyboard Keys (simplified) -->
  <g opacity="0.9">
    <rect class="key" x="230" y="337" width="12" height="10" rx="1" />
    <rect class="key" x="244" y="337" width="12" height="10" rx="1" />
    <rect class="key" x="258" y="337" width="12" height="10" rx="1" />
    <rect class="key" x="272" y="337" width="12" height="10" rx="1" />
    <rect class="key" x="286" y="337" width="12" height="10" rx="1" />
    <rect class="key" x="300" y="337" width="12" height="10" rx="1" />
    <rect class="key" x="314" y="337" width="12" height="10" rx="1" />
    <rect class="key" x="328" y="337" width="12" height="10" rx="1" />
    <rect class="key" x="342" y="337" width="12" height="10" rx="1" />
    <rect class="key" x="356" y="337" width="12" height="10" rx="1" />
    <rect class="key" x="370" y="337" width="12" height="10" rx="1" />
    <rect class="key" x="384" y="337" width="12" height="10" rx="1" />
    <rect class="key" x="398" y="337" width="12" height="10" rx="1" />
    <rect class="key" x="412" y="337" width="12" height="10" rx="1" />
    <rect class="key" x="426" y="337" width="12" height="10" rx="1" />
    <rect class="key" x="440" y="337" width="12" height="10" rx="1" />
    <rect class="key" x="454" y="337" width="12" height="10" rx="1" />
    <rect class="key" x="468" y="337" width="12" height="10" rx="1" />
    <rect class="key" x="482" y="337" width="12" height="10" rx="1" />
    <rect class="key" x="496" y="337" width="12" height="10" rx="1" />
    <rect class="key" x="510" y="337" width="12" height="10" rx="1" />
    <rect class="key" x="524" y="337" width="12" height="10" rx="1" />
    <rect class="key" x="538" y="337" width="12" height="10" rx="1" />
    <rect class="key" x="552" y="337" width="12" height="10" rx="1" />
    
    <rect class="key" x="235" y="349" width="12" height="10" rx="1" />
    <rect class="key" x="249" y="349" width="12" height="10" rx="1" />
    <rect class="key" x="263" y="349" width="12" height="10" rx="1" />
    <rect class="key" x="277" y="349" width="12" height="10" rx="1" />
    <rect class="key" x="291" y="349" width="12" height="10" rx="1" />
    <rect class="key" x="305" y="349" width="12" height="10" rx="1" />
    <rect class="key" x="319" y="349" width="12" height="10" rx="1" />
    <rect class="key" x="333" y="349" width="12" height="10" rx="1" />
    <rect class="key" x="347" y="349" width="12" height="10" rx="1" />
    <rect class="key" x="361" y="349" width="12" height="10" rx="1" />
    <rect class="key" x="375" y="349" width="12" height="10" rx="1" />
    <rect class="key" x="389" y="349" width="12" height="10" rx="1" />
    <rect class="key" x="403" y="349" width="12" height="10" rx="1" />
    <rect class="key" x="417" y="349" width="12" height="10" rx="1" />
    <rect class="key" x="431" y="349" width="12" height="10" rx="1" />
    <rect class="key" x="445" y="349" width="12" height="10" rx="1" />
    <rect class="key" x="459" y="349" width="12" height="10" rx="1" />
    <rect class="key" x="473" y="349" width="12" height="10" rx="1" />
    <rect class="key" x="487" y="349" width="12" height="10" rx="1" />
    <rect class="key" x="501" y="349" width="12" height="10" rx="1" />
    <rect class="key" x="515" y="349" width="12" height="10" rx="1" />
    <rect class="key" x="529" y="349" width="12" height="10" rx="1" />
    <rect class="key" x="543" y="349" width="12" height="10" rx="1" />
  </g>
  
  <!-- Touch Bar -->
  <rect class="touchbar" x="230" y="325" width="340" height="8" rx="2" />
  <rect class="touchbar-content" x="250" y="326" width="280" height="6" rx="1" />
  <rect class="touchbar-highlight" x="320" y="326" width="40" height="6" rx="1" />
  <rect class="touchbar-highlight" x="420" y="326" width="20" height="6" rx="1" opacity="0.6" />
  
  <!-- Trackpad -->
  <rect class="trackpad" x="320" y="340" width="160" height="20" rx="3" />
  
  <!-- Apple Logo (simplified) -->
  <path class="logo" d="M400,180 C405,175 415,177 415,185 C415,195 400,200 400,190 C400,200 385,195 385,185 C385,177 395,175 400,180 Z" transform="translate(0, 40)" />
  
  <!-- Screen Highlight -->
  <path class="highlight" d="M210,140 L590,140 L590,170 C500,180 300,180 210,170 Z" opacity="0.05" />
  
  <!-- Title and Specs -->
  <text class="title" x="400" y="410">MacBook Pro 16"</text>
  <text class="specs" x="400" y="430">M2 Pro • 32GB RAM • 1TB SSD</text>
</svg> 