<svg width="800" height="450" xmlns="http://www.w3.org/2000/svg">
  <style>
    .background {
      fill: #121212;
    }
    .outline {
      fill: none;
      stroke: #2A2A2A;
      stroke-width: 2;
    }
    .camera-body {
      fill: #1A1A1A;
      stroke: #333333;
      stroke-width: 1;
    }
    .camera-grip {
      fill: #222222;
      stroke: #333333;
      stroke-width: 0.5;
    }
    .camera-accent {
      fill: #444444;
    }
    .lens-body {
      fill: #282828;
      stroke: #333333;
      stroke-width: 1;
    }
    .lens-glass {
      fill: #0D0D0D;
      stroke: #222222;
      stroke-width: 0.5;
    }
    .lens-ring {
      fill: #333333;
      stroke: #444444;
      stroke-width: 0.5;
    }
    .lens-reflection {
      fill: #FFFFFF;
      opacity: 0.1;
    }
    .viewfinder {
      fill: #111111;
      stroke: #222222;
      stroke-width: 0.5;
    }
    .button {
      fill: #444444;
      stroke: #555555;
      stroke-width: 0.5;
    }
    .button-red {
      fill: #BB2124;
      stroke: #8B1014;
      stroke-width: 0.5;
    }
    .screen {
      fill: #111111;
      stroke: #333333;
      stroke-width: 0.5;
    }
    .screen-content {
      fill: #222222;
    }
    .display-text {
      fill: #888888;
      opacity: 0.8;
    }
    .highlight {
      fill: #FFFFFF;
      opacity: 0.1;
    }
    .shadow {
      fill: #000000;
      opacity: 0.3;
    }
    .strap-mount {
      fill: #444444;
      stroke: #333333;
      stroke-width: 0.5;
    }
    .dial {
      fill: #333333;
      stroke: #444444;
      stroke-width: 0.5;
    }
    .flash {
      fill: #282828;
      stroke: #333333;
      stroke-width: 0.5;
    }
    .brand {
      fill: #FFFFFF;
      opacity: 0.8;
    }
    .model {
      fill: #FF0000;
      opacity: 0.8;
    }
    .title {
      font-family: 'Arial', sans-serif;
      font-size: 24px;
      font-weight: 300;
      fill: #FFFFFF;
      text-anchor: middle;
    }
    .specs {
      font-family: 'Arial', sans-serif;
      font-size: 14px;
      fill: #BBBBBB;
      text-anchor: middle;
    }
  </style>
  <rect class="background" width="800" height="450" />
  <rect class="outline" x="10" y="10" width="780" height="430" rx="5" />
  
  <!-- Shadow -->
  <ellipse class="shadow" cx="400" cy="380" rx="230" ry="20" />
  
  <!-- Camera Body -->
  <rect class="camera-body" x="250" y="170" width="300" height="160" rx="10" />
  <rect class="camera-body" x="275" y="140" width="120" height="30" rx="5" />
  <rect class="camera-body" x="425" y="150" width="100" height="20" rx="5" />
  
  <!-- Grip -->
  <path class="camera-grip" d="M250,190 L220,210 C210,220 210,280 220,290 L250,310 Z" />
  <rect class="camera-accent" x="252" y="210" width="10" height="80" rx="2" />
  
  <!-- Lens Mount -->
  <circle class="camera-body" cx="350" cy="250" r="70" />
  <circle class="camera-accent" cx="350" cy="250" r="60" />
  <circle class="lens-body" cx="350" cy="250" r="55" />
  
  <!-- Lens -->
  <circle class="lens-body" cx="350" cy="250" r="50" />
  <circle class="lens-ring" cx="350" cy="250" r="47" />
  <circle class="lens-body" cx="350" cy="250" r="44" />
  <circle class="lens-ring" cx="350" cy="250" r="41" />
  <circle class="lens-body" cx="350" cy="250" r="38" />
  <circle class="lens-ring" cx="350" cy="250" r="35" />
  <circle class="lens-body" cx="350" cy="250" r="32" />
  
  <!-- Lens Extension -->
  <rect class="lens-body" x="300" y="215" width="100" height="70" rx="2" />
  <circle class="lens-glass" cx="350" cy="250" r="25" />
  <circle class="lens-ring" cx="350" cy="250" r="25" fill="none" stroke-width="1" />
  
  <!-- Lens Reflections -->
  <circle class="lens-reflection" cx="340" cy="240" r="5" />
  <circle class="lens-reflection" cx="335" cy="235" r="2" />
  
  <!-- Top Plate Details -->
  <!-- Mode Dial -->
  <circle class="dial" cx="480" cy="160" r="15" />
  <circle class="camera-accent" cx="480" cy="160" r="12" />
  <rect class="camera-accent" x="476" y="150" width="8" height="3" />
  <rect class="camera-accent" x="476" y="167" width="8" height="3" />
  <rect class="camera-accent" x="470" y="156" width="3" height="8" />
  <rect class="camera-accent" x="487" y="156" width="3" height="8" />
  
  <!-- Shutter Button -->
  <circle class="button" cx="520" cy="160" r="10" />
  <circle class="button-red" cx="520" cy="160" r="7" />
  
  <!-- Viewfinder -->
  <rect class="viewfinder" x="310" y="135" width="50" height="30" rx="3" />
  <rect class="camera-accent" x="300" y="145" width="70" height="10" rx="2" />
  <circle class="viewfinder" cx="335" cy="150" r="10" />
  <circle class="lens-glass" cx="335" cy="150" r="8" />
  
  <!-- Flash -->
  <rect class="flash" x="380" y="135" width="30" height="10" rx="2" />
  <rect class="lens-glass" x="385" y="138" width="20" height="4" rx="1" />
  
  <!-- LCD Screen -->
  <rect class="screen" x="440" y="190" width="80" height="60" rx="2" />
  <rect class="screen-content" x="445" y="195" width="70" height="50" rx="1" />
  
  <!-- Screen Content -->
  <rect class="display-text" x="450" y="200" width="15" height="5" rx="1" />
  <rect class="display-text" x="450" y="210" width="50" height="3" rx="1" />
  <rect class="display-text" x="450" y="216" width="40" height="3" rx="1" />
  <rect class="display-text" x="450" y="222" width="35" height="3" rx="1" />
  <rect class="display-text" x="450" y="228" width="45" height="3" rx="1" />
  <rect class="display-text" x="450" y="234" width="30" height="3" rx="1" />
  
  <!-- Control Buttons -->
  <circle class="button" cx="460" cy="270" r="5" />
  <circle class="button" cx="475" cy="270" r="5" />
  <circle class="button" cx="490" cy="270" r="5" />
  <circle class="button" cx="505" cy="270" r="5" />
  
  <!-- Control Dial -->
  <circle class="dial" cx="470" cy="300" r="12" />
  <circle class="camera-accent" cx="470" cy="300" r="9" />
  <path class="camera-accent" d="M470,295 L475,300 L470,305 Z" />
  
  <!-- Strap Mounts -->
  <rect class="strap-mount" x="225" y="175" width="10" height="15" rx="2" />
  <rect class="strap-mount" x="565" y="175" width="10" height="15" rx="2" />
  <circle class="camera-accent" cx="230" cy="182" r="3" />
  <circle class="camera-accent" cx="570" cy="182" r="3" />
  
  <!-- Brand and Model -->
  <text class="brand" x="345" y="190" font-family="Arial" font-size="16">CANON</text>
  <text class="model" x="420" y="190" font-family="Arial" font-size="14">EOS R5</text>
  
  <!-- Highlights -->
  <path class="highlight" d="M250,170 L550,170 C540,175 520,180 500,180 C450,180 300,180 260,175 Z" opacity="0.05" />
  <path class="highlight" d="M330,225 L370,225 C365,230 360,235 350,235 C340,235 335,230 330,225 Z" opacity="0.05" />
  
  <!-- Title and Specs -->
  <text class="title" x="400" y="410">Canon EOS R5</text>
  <text class="specs" x="400" y="430">45MP • 8K Video • Full-Frame Mirrorless</text>
</svg> 