<svg width="800" height="450" xmlns="http://www.w3.org/2000/svg">
  <style>
    .background {
      fill: #0F1620;
    }
    .outline {
      fill: none;
      stroke: #2A3A4A;
      stroke-width: 2;
    }
    .sky {
      fill: #1A2736;
    }
    .sky-glow {
      fill: url(#sky-gradient);
    }
    .building {
      fill: #2C3E50;
      stroke: #1C2E40;
      stroke-width: 1;
    }
    .building-dark {
      fill: #1C2E40;
      stroke: #15232D;
      stroke-width: 1;
    }
    .building-highlight {
      fill: #34495E;
    }
    .window {
      fill: #F1C40F;
      opacity: 0.7;
    }
    .window-dark {
      fill: #34495E;
    }
    .window-off {
      fill: #2C3E50;
      stroke: #1C2E40;
      stroke-width: 0.5;
    }
    .road {
      fill: #2C3E50;
    }
    .road-wet {
      fill: #1C2E40;
    }
    .road-marking {
      stroke: #ECF0F1;
      stroke-width: 2;
      stroke-dasharray: 5, 10;
      opacity: 0.3;
    }
    .rain {
      stroke: #ECF0F1;
      stroke-width: 0.5;
      opacity: 0.4;
    }
    .puddle {
      fill: #34495E;
      opacity: 0.6;
    }
    .puddle-reflection {
      fill: none;
      stroke: #F1C40F;
      stroke-width: 0.5;
      opacity: 0.3;
    }
    .streetlight {
      fill: #34495E;
      stroke: #2C3E50;
      stroke-width: 1;
    }
    .light-glow {
      fill: #F1C40F;
      opacity: 0.2;
    }
    .lamp {
      fill: #F1C40F;
      opacity: 0.9;
    }
    .frame {
      fill: none;
      stroke: #34495E;
      stroke-width: 5;
    }
    .title {
      font-family: 'Arial', sans-serif;
      font-size: 24px;
      font-weight: 300;
      fill: #ECF0F1;
      text-anchor: middle;
    }
  </style>
  
  <defs>
    <linearGradient id="sky-gradient" x1="0%" y1="0%" x2="0%" y2="100%">
      <stop offset="0%" stop-color="#0D1F34" />
      <stop offset="100%" stop-color="#1A2736" />
    </linearGradient>
  </defs>
  
  <rect class="background" width="800" height="450" />
  <rect class="outline" x="10" y="10" width="780" height="430" rx="5" />
  
  <!-- Sky -->
  <rect class="sky" x="30" y="30" width="740" height="300" />
  <rect class="sky-glow" x="30" y="30" width="740" height="150" />
  
  <!-- Buildings in back row -->
  <rect class="building-dark" x="80" y="140" width="70" height="190" />
  <rect class="building-dark" x="160" y="100" width="50" height="230" />
  <rect class="building-dark" x="230" y="160" width="90" height="170" />
  <rect class="building-dark" x="350" y="120" width="60" height="210" />
  <rect class="building-dark" x="440" y="80" width="40" height="250" />
  <rect class="building-dark" x="510" y="130" width="80" height="200" />
  <rect class="building-dark" x="620" y="110" width="70" height="220" />
  
  <!-- Windows for back buildings -->
  <g opacity="0.7">
    <!-- Building 1 windows -->
    <rect class="window-dark" x="90" y="160" width="10" height="15" />
    <rect class="window" x="110" y="160" width="10" height="15" />
    <rect class="window-dark" x="130" y="160" width="10" height="15" />
    
    <rect class="window" x="90" y="190" width="10" height="15" />
    <rect class="window-dark" x="110" y="190" width="10" height="15" />
    <rect class="window" x="130" y="190" width="10" height="15" />
    
    <rect class="window-dark" x="90" y="220" width="10" height="15" />
    <rect class="window" x="110" y="220" width="10" height="15" />
    <rect class="window-dark" x="130" y="220" width="10" height="15" />
    
    <rect class="window" x="90" y="250" width="10" height="15" />
    <rect class="window-dark" x="110" y="250" width="10" height="15" />
    <rect class="window" x="130" y="250" width="10" height="15" />
    
    <rect class="window-dark" x="90" y="280" width="10" height="15" />
    <rect class="window" x="110" y="280" width="10" height="15" />
    <rect class="window-dark" x="130" y="280" width="10" height="15" />
    
    <!-- More windows for other buildings -->
    <rect class="window" x="170" y="120" width="10" height="15" />
    <rect class="window" x="190" y="120" width="10" height="15" />
    
    <rect class="window-dark" x="170" y="150" width="10" height="15" />
    <rect class="window" x="190" y="150" width="10" height="15" />
    
    <rect class="window" x="170" y="180" width="10" height="15" />
    <rect class="window-dark" x="190" y="180" width="10" height="15" />
    
    <rect class="window-dark" x="170" y="210" width="10" height="15" />
    <rect class="window" x="190" y="210" width="10" height="15" />
    
    <rect class="window" x="170" y="240" width="10" height="15" />
    <rect class="window-dark" x="190" y="240" width="10" height="15" />
    
    <rect class="window-dark" x="170" y="270" width="10" height="15" />
    <rect class="window" x="190" y="270" width="10" height="15" />
    
    <!-- Building 3 -->
    <rect class="window" x="240" y="190" width="10" height="15" />
    <rect class="window-dark" x="260" y="190" width="10" height="15" />
    <rect class="window" x="280" y="190" width="10" height="15" />
    <rect class="window-dark" x="300" y="190" width="10" height="15" />
    
    <rect class="window-dark" x="240" y="220" width="10" height="15" />
    <rect class="window" x="260" y="220" width="10" height="15" />
    <rect class="window-dark" x="280" y="220" width="10" height="15" />
    <rect class="window" x="300" y="220" width="10" height="15" />
    
    <rect class="window" x="240" y="250" width="10" height="15" />
    <rect class="window-dark" x="260" y="250" width="10" height="15" />
    <rect class="window" x="280" y="250" width="10" height="15" />
    <rect class="window-dark" x="300" y="250" width="10" height="15" />
    
    <rect class="window-dark" x="240" y="280" width="10" height="15" />
    <rect class="window" x="260" y="280" width="10" height="15" />
    <rect class="window-dark" x="280" y="280" width="10" height="15" />
    <rect class="window" x="300" y="280" width="10" height="15" />
  </g>
  
  <!-- Buildings in front row -->
  <rect class="building" x="50" y="180" width="100" height="150" />
  <path class="building-highlight" d="M50,180 L150,180 L150,200 L130,200 L130,330 L50,330 Z" opacity="0.3" />
  
  <rect class="building" x="180" y="150" width="120" height="180" />
  <path class="building-highlight" d="M180,150 L300,150 L300,170 L280,170 L280,330 L180,330 Z" opacity="0.3" />
  
  <rect class="building" x="330" y="200" width="140" height="130" />
  <path class="building-highlight" d="M330,200 L470,200 L470,220 L450,220 L450,330 L330,330 Z" opacity="0.3" />
  
  <rect class="building" x="500" y="170" width="110" height="160" />
  <path class="building-highlight" d="M500,170 L610,170 L610,190 L590,190 L590,330 L500,330 Z" opacity="0.3" />
  
  <rect class="building" x="640" y="190" width="90" height="140" />
  <path class="building-highlight" d="M640,190 L730,190 L730,210 L710,210 L710,330 L640,330 Z" opacity="0.3" />
  
  <!-- Windows for front buildings -->
  <!-- Building 1 -->
  <rect class="window" x="70" y="200" width="15" height="20" />
  <rect class="window-off" x="95" y="200" width="15" height="20" />
  <rect class="window" x="120" y="200" width="15" height="20" />
  
  <rect class="window-off" x="70" y="240" width="15" height="20" />
  <rect class="window" x="95" y="240" width="15" height="20" />
  <rect class="window-off" x="120" y="240" width="15" height="20" />
  
  <rect class="window" x="70" y="280" width="15" height="20" />
  <rect class="window-off" x="95" y="280" width="15" height="20" />
  <rect class="window" x="120" y="280" width="15" height="20" />
  
  <!-- Building 2 -->
  <rect class="window" x="195" y="170" width="15" height="20" />
  <rect class="window-off" x="225" y="170" width="15" height="20" />
  <rect class="window" x="255" y="170" width="15" height="20" />
  
  <rect class="window-off" x="195" y="210" width="15" height="20" />
  <rect class="window" x="225" y="210" width="15" height="20" />
  <rect class="window-off" x="255" y="210" width="15" height="20" />
  
  <rect class="window" x="195" y="250" width="15" height="20" />
  <rect class="window-off" x="225" y="250" width="15" height="20" />
  <rect class="window" x="255" y="250" width="15" height="20" />
  
  <rect class="window-off" x="195" y="290" width="15" height="20" />
  <rect class="window" x="225" y="290" width="15" height="20" />
  <rect class="window-off" x="255" y="290" width="15" height="20" />
  
  <!-- Street Lights -->
  <rect class="streetlight" x="130" y="330" width="5" height="50" />
  <circle class="lamp" cx="132.5" cy="330" r="5" />
  <circle class="light-glow" cx="132.5" cy="330" r="15" />
  
  <rect class="streetlight" x="370" y="330" width="5" height="50" />
  <circle class="lamp" cx="372.5" cy="330" r="5" />
  <circle class="light-glow" cx="372.5" cy="330" r="15" />
  
  <rect class="streetlight" x="610" y="330" width="5" height="50" />
  <circle class="lamp" cx="612.5" cy="330" r="5" />
  <circle class="light-glow" cx="612.5" cy="330" r="15" />
  
  <!-- Road -->
  <rect class="road" x="30" y="330" width="740" height="50" />
  <rect class="road-wet" x="30" y="355" width="740" height="25" />
  <line class="road-marking" x1="30" y1="355" x2="770" y2="355" />
  
  <!-- Puddles -->
  <ellipse class="puddle" cx="100" cy="360" rx="30" ry="10" />
  <ellipse class="puddle-reflection" cx="100" cy="360" rx="15" ry="5" />
  
  <ellipse class="puddle" cx="250" cy="365" rx="40" ry="12" />
  <ellipse class="puddle-reflection" cx="250" cy="365" rx="20" ry="6" />
  
  <ellipse class="puddle" cx="450" cy="362" rx="35" ry="10" />
  <ellipse class="puddle-reflection" cx="450" cy="362" rx="18" ry="5" />
  
  <ellipse class="puddle" cx="650" cy="368" rx="45" ry="12" />
  <ellipse class="puddle-reflection" cx="650" cy="368" rx="22" ry="6" />
  
  <!-- Rain -->
  <g class="rain">
    <line x1="60" y1="50" x2="55" y2="60" />
    <line x1="120" y1="70" x2="115" y2="80" />
    <line x1="180" y1="60" x2="175" y2="70" />
    <line x1="240" y1="80" x2="235" y2="90" />
    <line x1="300" y1="50" x2="295" y2="60" />
    <line x1="360" y1="70" x2="355" y2="80" />
    <line x1="420" y1="60" x2="415" y2="70" />
    <line x1="480" y1="80" x2="475" y2="90" />
    <line x1="540" y1="50" x2="535" y2="60" />
    <line x1="600" y1="70" x2="595" y2="80" />
    <line x1="660" y1="60" x2="655" y2="70" />
    <line x1="720" y1="80" x2="715" y2="90" />
    
    <line x1="90" y1="100" x2="85" y2="110" />
    <line x1="150" y1="120" x2="145" y2="130" />
    <line x1="210" y1="110" x2="205" y2="120" />
    <line x1="270" y1="130" x2="265" y2="140" />
    <line x1="330" y1="100" x2="325" y2="110" />
    <line x1="390" y1="120" x2="385" y2="130" />
    <line x1="450" y1="110" x2="445" y2="120" />
    <line x1="510" y1="130" x2="505" y2="140" />
    <line x1="570" y1="100" x2="565" y2="110" />
    <line x1="630" y1="120" x2="625" y2="130" />
    <line x1="690" y1="110" x2="685" y2="120" />
    <line x1="750" y1="130" x2="745" y2="140" />
    
    <line x1="75" y1="150" x2="70" y2="160" />
    <line x1="135" y1="170" x2="130" y2="180" />
    <line x1="195" y1="160" x2="190" y2="170" />
    <line x1="255" y1="180" x2="250" y2="190" />
    <line x1="315" y1="150" x2="310" y2="160" />
    <line x1="375" y1="170" x2="370" y2="180" />
    <line x1="435" y1="160" x2="430" y2="170" />
    <line x1="495" y1="180" x2="490" y2="190" />
    <line x1="555" y1="150" x2="550" y2="160" />
    <line x1="615" y1="170" x2="610" y2="180" />
    <line x1="675" y1="160" x2="670" y2="170" />
    <line x1="735" y1="180" x2="730" y2="190" />
    
    <line x1="45" y1="200" x2="40" y2="210" />
    <line x1="105" y1="220" x2="100" y2="230" />
    <line x1="165" y1="210" x2="160" y2="220" />
    <line x1="225" y1="230" x2="220" y2="240" />
    <line x1="285" y1="200" x2="280" y2="210" />
    <line x1="345" y1="220" x2="340" y2="230" />
    <line x1="405" y1="210" x2="400" y2="220" />
    <line x1="465" y1="230" x2="460" y2="240" />
    <line x1="525" y1="200" x2="520" y2="210" />
    <line x1="585" y1="220" x2="580" y2="230" />
    <line x1="645" y1="210" x2="640" y2="220" />
    <line x1="705" y1="230" x2="700" y2="240" />
    
    <line x1="60" y1="250" x2="55" y2="260" />
    <line x1="120" y1="270" x2="115" y2="280" />
    <line x1="180" y1="260" x2="175" y2="270" />
    <line x1="240" y1="280" x2="235" y2="290" />
    <line x1="300" y1="250" x2="295" y2="260" />
    <line x1="360" y1="270" x2="355" y2="280" />
    <line x1="420" y1="260" x2="415" y2="270" />
    <line x1="480" y1="280" x2="475" y2="290" />
    <line x1="540" y1="250" x2="535" y2="260" />
    <line x1="600" y1="270" x2="595" y2="280" />
    <line x1="660" y1="260" x2="655" y2="270" />
    <line x1="720" y1="280" x2="715" y2="290" />
  </g>
  
  <!-- Frame -->
  <rect class="frame" x="25" y="25" width="750" height="360" rx="3" />
  
  <!-- Title -->
  <text class="title" x="400" y="415">RAINY STREET</text>
</svg> 