<svg width="800" height="450" xmlns="http://www.w3.org/2000/svg">
  <style>
    .background {
      fill: #0F1620;
    }
    .outline {
      fill: none;
      stroke: #2A3A4A;
      stroke-width: 2;
    }
    .sky {
      fill: #1A2736;
    }
    .sky-glow {
      fill: url(#sky-gradient);
    }
    .building {
      fill: #2C3E50;
      stroke: #1C2E40;
      stroke-width: 1;
    }
    .building-dark {
      fill: #1C2E40;
      stroke: #15232D;
      stroke-width: 1;
    }
    .building-highlight {
      fill: #34495E;
    }
    .window {
      fill: #F1C40F;
      opacity: 0.7;
    }
    .window-dark {
      fill: #34495E;
    }
    .window-off {
      fill: #2C3E50;
      stroke: #1C2E40;
      stroke-width: 0.5;
    }
    .road {
      fill: #2C3E50;
    }
    .road-marking {
      stroke: #ECF0F1;
      stroke-width: 2;
      stroke-dasharray: 10, 10;
      opacity: 0.6;
    }
    .car {
      fill: #E74C3C;
      stroke: #C0392B;
      stroke-width: 1;
    }
    .car-window {
      fill: #ECF0F1;
      opacity: 0.7;
    }
    .car-light {
      fill: #F1C40F;
      opacity: 0.9;
    }
    .car2 {
      fill: #3498DB;
      stroke: #2980B9;
      stroke-width: 1;
    }
    .star {
      fill: #ECF0F1;
      opacity: 0.8;
    }
    .moon {
      fill: #ECF0F1;
    }
    .frame {
      fill: none;
      stroke: #34495E;
      stroke-width: 5;
    }
    .title {
      font-family: 'Arial', sans-serif;
      font-size: 24px;
      font-weight: 300;
      fill: #ECF0F1;
      text-anchor: middle;
    }
  </style>
  
  <defs>
    <linearGradient id="sky-gradient" x1="0%" y1="0%" x2="0%" y2="100%">
      <stop offset="0%" stop-color="#103060" />
      <stop offset="100%" stop-color="#1A2736" />
    </linearGradient>
  </defs>
  
  <rect class="background" width="800" height="450" />
  <rect class="outline" x="10" y="10" width="780" height="430" rx="5" />
  
  <!-- Sky -->
  <rect class="sky" x="30" y="30" width="740" height="300" />
  <rect class="sky-glow" x="30" y="30" width="740" height="150" />
  
  <!-- Moon -->
  <circle class="moon" cx="130" cy="90" r="30" />
  <circle fill="#0F1620" cx="145" cy="80" r="25" opacity="0.3" />
  
  <!-- Stars -->
  <circle class="star" cx="250" cy="70" r="1.5" />
  <circle class="star" cx="300" cy="110" r="1" />
  <circle class="star" cx="450" cy="60" r="1.5" />
  <circle class="star" cx="550" cy="90" r="1" />
  <circle class="star" cx="650" cy="120" r="1.5" />
  <circle class="star" cx="200" cy="150" r="1" />
  <circle class="star" cx="350" cy="80" r="1.5" />
  <circle class="star" cx="400" cy="120" r="1" />
  <circle class="star" cx="500" cy="150" r="1.5" />
  <circle class="star" cx="600" cy="70" r="1" />
  <circle class="star" cx="700" cy="100" r="1.5" />
  
  <!-- Buildings in back row -->
  <rect class="building-dark" x="80" y="140" width="70" height="190" />
  <rect class="building-dark" x="160" y="100" width="50" height="230" />
  <rect class="building-dark" x="230" y="160" width="90" height="170" />
  <rect class="building-dark" x="350" y="120" width="60" height="210" />
  <rect class="building-dark" x="440" y="80" width="40" height="250" />
  <rect class="building-dark" x="510" y="130" width="80" height="200" />
  <rect class="building-dark" x="620" y="110" width="70" height="220" />
  
  <!-- Windows for back buildings -->
  <g opacity="0.7">
    <!-- Building 1 windows -->
    <rect class="window-dark" x="90" y="160" width="10" height="15" />
    <rect class="window" x="110" y="160" width="10" height="15" />
    <rect class="window-dark" x="130" y="160" width="10" height="15" />
    
    <rect class="window" x="90" y="190" width="10" height="15" />
    <rect class="window-dark" x="110" y="190" width="10" height="15" />
    <rect class="window" x="130" y="190" width="10" height="15" />
    
    <rect class="window-dark" x="90" y="220" width="10" height="15" />
    <rect class="window" x="110" y="220" width="10" height="15" />
    <rect class="window-dark" x="130" y="220" width="10" height="15" />
    
    <rect class="window" x="90" y="250" width="10" height="15" />
    <rect class="window-dark" x="110" y="250" width="10" height="15" />
    <rect class="window" x="130" y="250" width="10" height="15" />
    
    <rect class="window-dark" x="90" y="280" width="10" height="15" />
    <rect class="window" x="110" y="280" width="10" height="15" />
    <rect class="window-dark" x="130" y="280" width="10" height="15" />
    
    <!-- More windows for other buildings -->
    <rect class="window" x="170" y="120" width="10" height="15" />
    <rect class="window" x="190" y="120" width="10" height="15" />
    
    <rect class="window-dark" x="170" y="150" width="10" height="15" />
    <rect class="window" x="190" y="150" width="10" height="15" />
    
    <rect class="window" x="170" y="180" width="10" height="15" />
    <rect class="window-dark" x="190" y="180" width="10" height="15" />
    
    <rect class="window-dark" x="170" y="210" width="10" height="15" />
    <rect class="window" x="190" y="210" width="10" height="15" />
    
    <rect class="window" x="170" y="240" width="10" height="15" />
    <rect class="window-dark" x="190" y="240" width="10" height="15" />
    
    <rect class="window-dark" x="170" y="270" width="10" height="15" />
    <rect class="window" x="190" y="270" width="10" height="15" />
    
    <!-- Building 3 -->
    <rect class="window" x="240" y="190" width="10" height="15" />
    <rect class="window-dark" x="260" y="190" width="10" height="15" />
    <rect class="window" x="280" y="190" width="10" height="15" />
    <rect class="window-dark" x="300" y="190" width="10" height="15" />
    
    <rect class="window-dark" x="240" y="220" width="10" height="15" />
    <rect class="window" x="260" y="220" width="10" height="15" />
    <rect class="window-dark" x="280" y="220" width="10" height="15" />
    <rect class="window" x="300" y="220" width="10" height="15" />
    
    <rect class="window" x="240" y="250" width="10" height="15" />
    <rect class="window-dark" x="260" y="250" width="10" height="15" />
    <rect class="window" x="280" y="250" width="10" height="15" />
    <rect class="window-dark" x="300" y="250" width="10" height="15" />
    
    <rect class="window-dark" x="240" y="280" width="10" height="15" />
    <rect class="window" x="260" y="280" width="10" height="15" />
    <rect class="window-dark" x="280" y="280" width="10" height="15" />
    <rect class="window" x="300" y="280" width="10" height="15" />
  </g>
  
  <!-- Buildings in front row -->
  <rect class="building" x="50" y="180" width="100" height="150" />
  <path class="building-highlight" d="M50,180 L150,180 L150,200 L130,200 L130,330 L50,330 Z" opacity="0.3" />
  
  <rect class="building" x="180" y="150" width="120" height="180" />
  <path class="building-highlight" d="M180,150 L300,150 L300,170 L280,170 L280,330 L180,330 Z" opacity="0.3" />
  
  <rect class="building" x="330" y="200" width="140" height="130" />
  <path class="building-highlight" d="M330,200 L470,200 L470,220 L450,220 L450,330 L330,330 Z" opacity="0.3" />
  
  <rect class="building" x="500" y="170" width="110" height="160" />
  <path class="building-highlight" d="M500,170 L610,170 L610,190 L590,190 L590,330 L500,330 Z" opacity="0.3" />
  
  <rect class="building" x="640" y="190" width="90" height="140" />
  <path class="building-highlight" d="M640,190 L730,190 L730,210 L710,210 L710,330 L640,330 Z" opacity="0.3" />
  
  <!-- Windows for front buildings -->
  <!-- Building 1 -->
  <rect class="window" x="70" y="200" width="15" height="20" />
  <rect class="window-off" x="95" y="200" width="15" height="20" />
  <rect class="window" x="120" y="200" width="15" height="20" />
  
  <rect class="window-off" x="70" y="240" width="15" height="20" />
  <rect class="window" x="95" y="240" width="15" height="20" />
  <rect class="window-off" x="120" y="240" width="15" height="20" />
  
  <rect class="window" x="70" y="280" width="15" height="20" />
  <rect class="window-off" x="95" y="280" width="15" height="20" />
  <rect class="window" x="120" y="280" width="15" height="20" />
  
  <!-- Building 2 -->
  <rect class="window" x="195" y="170" width="15" height="20" />
  <rect class="window-off" x="225" y="170" width="15" height="20" />
  <rect class="window" x="255" y="170" width="15" height="20" />
  
  <rect class="window-off" x="195" y="210" width="15" height="20" />
  <rect class="window" x="225" y="210" width="15" height="20" />
  <rect class="window-off" x="255" y="210" width="15" height="20" />
  
  <rect class="window" x="195" y="250" width="15" height="20" />
  <rect class="window-off" x="225" y="250" width="15" height="20" />
  <rect class="window" x="255" y="250" width="15" height="20" />
  
  <rect class="window-off" x="195" y="290" width="15" height="20" />
  <rect class="window" x="225" y="290" width="15" height="20" />
  <rect class="window-off" x="255" y="290" width="15" height="20" />
  
  <!-- Road -->
  <rect class="road" x="30" y="330" width="740" height="50" />
  <line class="road-marking" x1="30" y1="355" x2="770" y2="355" />
  
  <!-- Cars -->
  <rect class="car" x="150" y="335" width="60" height="20" rx="5" />
  <rect class="car" x="150" y="325" width="40" height="15" rx="3" />
  <rect class="car-window" x="155" y="330" width="15" height="8" />
  <rect class="car-window" x="175" y="330" width="10" height="8" />
  <circle class="car-light" cx="208" cy="345" r="3" />
  
  <rect class="car2" x="580" y="345" width="60" height="20" rx="5" />
  <rect class="car2" x="590" y="335" width="40" height="15" rx="3" />
  <rect class="car-window" x="595" y="338" width="15" height="8" />
  <rect class="car-window" x="615" y="338" width="10" height="8" />
  <circle class="car-light" cx="582" cy="355" r="3" />
  
  <!-- Frame -->
  <rect class="frame" x="25" y="25" width="750" height="360" rx="3" />
  
  <!-- Title -->
  <text class="title" x="400" y="415">URBAN NIGHTSCAPE</text>
</svg> 