<svg width="800" height="450" xmlns="http://www.w3.org/2000/svg">
  <style>
    .background {
      fill: #0D1117;
    }
    .outline {
      fill: none;
      stroke: #30363D;
      stroke-width: 2;
    }
    .sky {
      fill: url(#sky-gradient);
    }
    .sun {
      fill: #FF7E5F;
    }
    .sun-glow {
      fill: url(#sun-glow);
      opacity: 0.6;
    }
    .cloud {
      fill: #FF9F7F;
      opacity: 0.7;
    }
    .cloud-dark {
      fill: #CC6E5F;
      opacity: 0.6;
    }
    .ocean {
      fill: #324A5F;
    }
    .ocean-reflection {
      fill: url(#ocean-gradient);
    }
    .shore {
      fill: #EAC086;
    }
    .shore-wet {
      fill: #C9A676;
    }
    .palm {
      fill: #2D3A3A;
    }
    .palm-leaf {
      fill: #3D5C5C;
      stroke: #2D3A3A;
      stroke-width: 1;
    }
    .rock {
      fill: #5D4037;
      stroke: #4E342E;
      stroke-width: 1;
    }
    .frame {
      fill: none;
      stroke: #FF7E5F;
      stroke-width: 5;
      opacity: 0.8;
    }
    .title {
      font-family: 'Arial', sans-serif;
      font-size: 24px;
      font-weight: 300;
      fill: #ECF0F1;
      text-anchor: middle;
    }
  </style>
  
  <defs>
    <linearGradient id="sky-gradient" x1="0%" y1="0%" x2="0%" y2="100%">
      <stop offset="0%" stop-color="#1B263B" />
      <stop offset="20%" stop-color="#233554" />
      <stop offset="40%" stop-color="#FF5F41" opacity="0.8" />
      <stop offset="60%" stop-color="#FF7E5F" opacity="0.8" />
      <stop offset="80%" stop-color="#FFA17F" opacity="0.8" />
      <stop offset="100%" stop-color="#FFB892" opacity="0.8" />
    </linearGradient>
    <radialGradient id="sun-glow" cx="50%" cy="50%" r="50%" fx="50%" fy="50%">
      <stop offset="0%" stop-color="#FFCC80" stop-opacity="0.8" />
      <stop offset="100%" stop-color="#FF5F41" stop-opacity="0" />
    </radialGradient>
    <linearGradient id="ocean-gradient" x1="0%" y1="0%" x2="0%" y2="100%">
      <stop offset="0%" stop-color="#FF7E5F" stop-opacity="0.3" />
      <stop offset="50%" stop-color="#324A5F" />
      <stop offset="100%" stop-color="#1D2A36" />
    </linearGradient>
  </defs>
  
  <rect class="background" width="800" height="450" />
  <rect class="outline" x="10" y="10" width="780" height="430" rx="5" />
  
  <!-- Sky -->
  <rect class="sky" x="30" y="30" width="740" height="270" />
  
  <!-- Sun and Glow -->
  <circle class="sun-glow" cx="400" cy="220" r="100" />
  <circle class="sun" cx="400" cy="220" r="40" />
  
  <!-- Clouds -->
  <path class="cloud" d="M150,100 C160,90 180,90 190,100 C200,80 230,80 240,100 C250,90 270,90 280,100 C290,95 310,95 320,105 C330,90 350,90 360,105 C380,95 400,95 410,110 C420,100 440,100 450,110 C450,125 420,130 410,125 C400,140 380,140 370,130 C350,145 330,145 320,130 C310,140 290,140 280,130 C260,145 240,145 230,130 C210,145 190,145 180,130 C160,145 140,145 130,130 C120,140 100,140 90,130 C80,140 60,140 50,130 C40,140 20,140 10,130 L10,100 C20,90 40,90 50,100 C60,90 80,90 90,100 C100,85 120,85 130,100 C140,90 160,90 170,100 Z" transform="translate(30, 10) scale(0.8)" />
  
  <path class="cloud-dark" d="M150,100 C160,90 180,90 190,100 C200,80 230,80 240,100 C250,90 270,90 280,100 C290,95 310,95 320,105 C330,90 350,90 360,105 C380,95 400,95 410,110 C420,100 440,100 450,110 C450,125 420,130 410,125 C400,140 380,140 370,130 C350,145 330,145 320,130 C310,140 290,140 280,130 C260,145 240,145 230,130 C210,145 190,145 180,130 C160,145 140,145 130,130 C120,140 100,140 90,130 C80,140 60,140 50,130 C40,140 20,140 10,130 L10,100 C20,90 40,90 50,100 C60,90 80,90 90,100 C100,85 120,85 130,100 C140,90 160,90 170,100 Z" transform="translate(380, 40) scale(0.6)" />
  
  <!-- Ocean -->
  <rect class="ocean" x="30" y="300" width="740" height="100" />
  <rect class="ocean-reflection" x="30" y="300" width="740" height="40" />
  
  <!-- Shore -->
  <path class="shore" d="M30,380 C100,360 150,370 200,350 C250,330 300,340 350,330 C400,320 450,330 500,320 C550,310 600,320 650,310 C700,300 750,310 770,300 L770,400 L30,400 Z" />
  
  <!-- Wet Sand -->
  <path class="shore-wet" d="M30,380 C100,360 150,370 200,350 C250,330 300,340 350,330 C400,320 450,330 500,320 C550,310 600,320 650,310 C700,300 750,310 770,300 L770,320 C750,330 700,320 650,330 C600,340 550,330 500,340 C450,350 400,340 350,350 C300,360 250,350 200,370 C150,390 100,380 30,400 Z" />
  
  <!-- Rocks -->
  <ellipse class="rock" cx="150" cy="360" rx="20" ry="10" />
  <ellipse class="rock" cx="160" cy="355" rx="15" ry="8" />
  <ellipse class="rock" cx="140" cy="350" rx="10" ry="5" />
  
  <ellipse class="rock" cx="650" cy="330" rx="25" ry="12" />
  <ellipse class="rock" cx="660" cy="325" rx="18" ry="9" />
  <ellipse class="rock" cx="640" cy="322" rx="12" ry="6" />
  
  <!-- Palm Trees -->
  <!-- Left Palm -->
  <rect class="palm" x="100" y="300" width="10" height="80" transform="rotate(-10, 100, 300)" />
  <path class="palm-leaf" d="M110,300 C140,280 170,290 180,310 C160,300 140,300 110,310 Z" transform="rotate(-10, 110, 300)" />
  <path class="palm-leaf" d="M110,300 C140,260 180,260 200,270 C170,270 140,280 110,300 Z" transform="rotate(-10, 110, 300)" />
  <path class="palm-leaf" d="M110,300 C130,270 160,250 190,250 C160,260 130,280 110,290 Z" transform="rotate(-10, 110, 300)" />
  <path class="palm-leaf" d="M110,300 C130,320 160,330 190,320 C160,320 130,310 110,310 Z" transform="rotate(-10, 110, 300)" />
  <path class="palm-leaf" d="M110,300 C130,330 150,350 180,350 C150,340 130,320 110,310 Z" transform="rotate(-10, 110, 300)" />
  
  <!-- Right Palm -->
  <rect class="palm" x="650" y="280" width="8" height="70" transform="rotate(10, 650, 280)" />
  <path class="palm-leaf" d="M650,280 C620,260 590,270 580,290 C600,280 620,280 650,290 Z" transform="rotate(10, 650, 280)" />
  <path class="palm-leaf" d="M650,280 C620,240 580,240 560,250 C590,250 620,260 650,280 Z" transform="rotate(10, 650, 280)" />
  <path class="palm-leaf" d="M650,280 C630,250 600,230 570,230 C600,240 630,260 650,270 Z" transform="rotate(10, 650, 280)" />
  <path class="palm-leaf" d="M650,280 C630,300 600,310 570,300 C600,300 630,290 650,290 Z" transform="rotate(10, 650, 280)" />
  <path class="palm-leaf" d="M650,280 C630,310 610,330 580,330 C610,320 630,300 650,290 Z" transform="rotate(10, 650, 280)" />
  
  <!-- Frame -->
  <rect class="frame" x="25" y="25" width="750" height="360" rx="3" />
  
  <!-- Title -->
  <text class="title" x="400" y="415">PACIFIC SUNSET</text>
</svg> 