<svg width="800" height="450" xmlns="http://www.w3.org/2000/svg">
  <style>
    .background {
      fill: #0D1117;
    }
    .outline {
      fill: none;
      stroke: #30363D;
      stroke-width: 2;
    }
    .sky {
      fill: #1D2D44;
    }
    .sky-glow {
      fill: url(#sky-gradient);
    }
    .mountain-far {
      fill: #183446;
      stroke: #142736;
      stroke-width: 1;
    }
    .mountain-mid {
      fill: #2A4A5C;
      stroke: #1F3A4A;
      stroke-width: 1;
    }
    .mountain-near {
      fill: #3A6273;
      stroke: #2A5262;
      stroke-width: 1;
    }
    .snow {
      fill: #E2E8F0;
      opacity: 0.9;
    }
    .tree {
      fill: #1E453E;
      stroke: #173832;
      stroke-width: 0.5;
    }
    .tree-highlight {
      fill: #2C5F54;
    }
    .lake {
      fill: #2D5E79;
    }
    .lake-reflection {
      fill: url(#lake-gradient);
    }
    .star {
      fill: #E2E8F0;
      opacity: 0.8;
    }
    .cloud {
      fill: #E2E8F0;
      opacity: 0.2;
    }
    .frame {
      fill: none;
      stroke: #3A6273;
      stroke-width: 5;
    }
    .title {
      font-family: 'Arial', sans-serif;
      font-size: 24px;
      font-weight: 300;
      fill: #E2E8F0;
      text-anchor: middle;
    }
  </style>
  
  <defs>
    <linearGradient id="sky-gradient" x1="0%" y1="0%" x2="0%" y2="100%">
      <stop offset="0%" stop-color="#091E36" />
      <stop offset="100%" stop-color="#1D2D44" />
    </linearGradient>
    <linearGradient id="lake-gradient" x1="0%" y1="0%" x2="0%" y2="100%">
      <stop offset="0%" stop-color="#2D5E79" />
      <stop offset="100%" stop-color="#1A3A4E" />
    </linearGradient>
  </defs>
  
  <rect class="background" width="800" height="450" />
  <rect class="outline" x="10" y="10" width="780" height="430" rx="5" />
  
  <!-- Sky -->
  <rect class="sky" x="30" y="30" width="740" height="300" />
  <rect class="sky-glow" x="30" y="30" width="740" height="150" />
  
  <!-- Stars -->
  <circle class="star" cx="100" cy="60" r="1.2" />
  <circle class="star" cx="170" cy="80" r="1" />
  <circle class="star" cx="250" cy="50" r="1.5" />
  <circle class="star" cx="320" cy="90" r="1" />
  <circle class="star" cx="400" cy="70" r="1.3" />
  <circle class="star" cx="470" cy="50" r="1" />
  <circle class="star" cx="550" cy="80" r="1.5" />
  <circle class="star" cx="620" cy="60" r="1" />
  <circle class="star" cx="700" cy="90" r="1.2" />
  <circle class="star" cx="150" cy="120" r="1" />
  <circle class="star" cx="230" cy="100" r="1.3" />
  <circle class="star" cx="300" cy="130" r="1" />
  <circle class="star" cx="380" cy="110" r="1.5" />
  <circle class="star" cx="450" cy="140" r="1" />
  <circle class="star" cx="530" cy="120" r="1.2" />
  <circle class="star" cx="600" cy="150" r="1" />
  <circle class="star" cx="670" cy="130" r="1.5" />
  
  <!-- Clouds -->
  <ellipse class="cloud" cx="200" cy="100" rx="70" ry="15" />
  <ellipse class="cloud" cx="600" cy="120" rx="90" ry="20" />
  <ellipse class="cloud" cx="400" cy="80" rx="60" ry="12" />
  
  <!-- Far Mountains -->
  <path class="mountain-far" d="M30,230 L140,130 L180,160 L230,110 L280,140 L330,90 L370,130 L420,80 L470,130 L520,80 L560,120 L600,70 L650,120 L700,80 L770,160 L770,330 L30,330 Z" />
  
  <!-- Snow Caps on Far Mountains -->
  <path class="snow" d="M330,90 L340,100 L360,95 L370,130 L380,120 L390,125 L400,115 L410,120 L420,80 L430,90 L440,85 L450,95 L470,130" />
  <path class="snow" d="M520,80 L530,90 L540,85 L550,95 L560,120" />
  <path class="snow" d="M600,70 L610,80 L620,75 L630,85 L640,80 L650,120" />
  <path class="snow" d="M700,80 L710,90 L720,85 L730,95 L740,90 L770,160" />
  
  <!-- Mid Mountains -->
  <path class="mountain-mid" d="M30,260 L90,190 L120,210 L180,160 L230,200 L280,170 L330,210 L370,180 L440,240 L500,180 L550,230 L600,190 L650,240 L700,200 L770,260 L770,330 L30,330 Z" />
  
  <!-- Near Mountains with Trees -->
  <path class="mountain-near" d="M30,290 L70,250 L120,280 L170,240 L220,280 L270,250 L320,290 L370,260 L420,290 L470,250 L530,290 L580,260 L630,290 L680,250 L770,310 L770,330 L30,330 Z" />
  
  <!-- Lake -->
  <rect class="lake" x="30" y="330" width="740" height="50" />
  <rect class="lake-reflection" x="30" y="350" width="740" height="30" />
  
  <!-- Trees (stylized) -->
  <g>
    <!-- Far treeline silhouettes -->
    <path class="tree" d="M70,250 L75,240 L80,250" stroke-width="1" />
    <path class="tree" d="M90,250 L95,230 L100,250" stroke-width="1" />
    <path class="tree" d="M110,250 L115,235 L120,250" stroke-width="1" />
    
    <path class="tree" d="M170,240 L175,225 L180,240" stroke-width="1" />
    <path class="tree" d="M190,240 L195,220 L200,240" stroke-width="1" />
    <path class="tree" d="M210,240 L215,230 L220,240" stroke-width="1" />
    
    <path class="tree" d="M420,290 L425,275 L430,290" stroke-width="1" />
    <path class="tree" d="M440,290 L445,270 L450,290" stroke-width="1" />
    <path class="tree" d="M460,290 L465,280 L470,290" stroke-width="1" />
    
    <path class="tree" d="M530,290 L535,275 L540,290" stroke-width="1" />
    <path class="tree" d="M550,290 L555,270 L560,290" stroke-width="1" />
    <path class="tree" d="M570,290 L575,280 L580,290" stroke-width="1" />
  </g>
  
  <!-- Detailed Trees in Foreground -->
  <path class="tree" d="M110,310 L120,290 L130,310 L125,310 L130,295 L135,310 L130,310 L135,300 L140,310" />
  <path class="tree-highlight" d="M115,310 L120,295 L125,310" opacity="0.7" />
  
  <path class="tree" d="M150,310 L160,285 L170,310 L165,310 L170,290 L175,310 L170,310 L175,295 L180,310" />
  <path class="tree-highlight" d="M155,310 L160,290 L165,310" opacity="0.7" />
  
  <path class="tree" d="M600,310 L610,290 L620,310 L615,310 L620,295 L625,310 L620,310 L625,300 L630,310" />
  <path class="tree-highlight" d="M605,310 L610,295 L615,310" opacity="0.7" />
  
  <path class="tree" d="M640,310 L650,285 L660,310 L655,310 L660,290 L665,310 L660,310 L665,295 L670,310" />
  <path class="tree-highlight" d="M645,310 L650,290 L655,310" opacity="0.7" />
  
  <!-- Frame -->
  <rect class="frame" x="25" y="25" width="750" height="360" rx="3" />
  
  <!-- Title -->
  <text class="title" x="400" y="415">ALPINE TWILIGHT</text>
</svg> 