<svg width="800" height="450" xmlns="http://www.w3.org/2000/svg">
  <style>
    .background {
      fill: #100C1A;
    }
    .outline {
      fill: none;
      stroke: #271D3B;
      stroke-width: 2;
    }
    .brain-main {
      fill: #432E7E;
      stroke: #563BAA;
      stroke-width: 2;
    }
    .brain-detail {
      fill: none;
      stroke: #8B61FF;
      stroke-width: 1.5;
      stroke-opacity: 0.7;
    }
    .brain-pulse {
      fill: none;
      stroke: #FF61AB;
      stroke-width: 1;
      stroke-dasharray: 3,3;
    }
    .neuron {
      fill: #8B61FF;
      opacity: 0.8;
    }
    .synapse {
      stroke: #8B61FF;
      stroke-width: 1;
      opacity: 0.6;
    }
    .particle {
      fill: #FF61AB;
    }
    .wave {
      stroke: #39D7FF;
      stroke-width: 1;
      fill: none;
      opacity: 0.5;
    }
    .title {
      font-family: 'Arial', sans-serif;
      font-size: 40px;
      font-weight: bold;
      fill: #FFFFFF;
      text-anchor: middle;
    }
    .subtitle {
      font-family: 'Arial', sans-serif;
      font-size: 20px;
      fill: #BFA5FF;
      text-anchor: middle;
    }
  </style>
  <rect class="background" width="800" height="450" />
  <rect class="outline" x="10" y="10" width="780" height="430" rx="5" />
  
  <!-- Waves in background -->
  <path class="wave" d="M10,200 C50,180 100,230 150,200 C200,170 250,230 300,200 C350,170 400,230 450,200 C500,170 550,230 600,200 C650,170 700,230 750,200 C800,170 850,230 900,200" />
  <path class="wave" d="M10,225 C50,205 100,255 150,225 C200,195 250,255 300,225 C350,195 400,255 450,225 C500,195 550,255 600,225 C650,195 700,255 750,225 C800,195 850,255 900,225" />
  <path class="wave" d="M10,250 C50,230 100,280 150,250 C200,220 250,280 300,250 C350,220 400,280 450,250 C500,220 550,280 600,250 C650,220 700,280 750,250 C800,220 850,280 900,250" />
  
  <!-- Brain Outline -->
  <path class="brain-main" d="M400,150 
    C450,140 470,110 460,80 
    C450,50 430,40 400,40 
    C370,40 350,50 340,80 
    C330,110 350,140 400,150 
    Z" />
  
  <!-- Brain details - left lobe -->
  <path class="brain-detail" d="M340,80 
    C338,70 335,60 330,55 
    C325,50 320,48 315,50 
    C310,52 305,58 310,70
    C315,82 320,85 330,90" />
  
  <path class="brain-detail" d="M330,90
    C325,100 322,110 325,120
    C328,130 335,135 345,130
    C355,125 360,115 355,105
    C350,95 340,85 330,90" />
  
  <!-- Brain details - right lobe -->
  <path class="brain-detail" d="M460,80
    C462,70 465,60 470,55
    C475,50 480,48 485,50
    C490,52 495,58 490,70
    C485,82 480,85 470,90" />
  
  <path class="brain-detail" d="M470,90
    C475,100 478,110 475,120
    C472,130 465,135 455,130
    C445,125 440,115 445,105
    C450,95 460,85 470,90" />
  
  <!-- Brain details - frontal lobe -->
  <path class="brain-detail" d="M400,40
    C390,35 380,32 370,35
    C360,38 355,45 360,55
    C365,65 375,68 385,65
    C395,62 405,50 400,40" />
  
  <path class="brain-detail" d="M400,40
    C410,35 420,32 430,35
    C440,38 445,45 440,55
    C435,65 425,68 415,65
    C405,62 395,50 400,40" />
  
  <!-- Brain Pulse Animation -->
  <path class="brain-pulse" d="M400,150 
    C460,140 485,105 470,70 
    C455,35 425,25 400,25 
    C375,25 345,35 330,70 
    C315,105 340,140 400,150 
    Z" />
  
  <!-- Neurons and Synapses -->
  <circle class="neuron" cx="370" cy="70" r="5" />
  <circle class="neuron" cx="350" cy="100" r="4" />
  <circle class="neuron" cx="380" cy="110" r="3" />
  <circle class="neuron" cx="430" cy="110" r="4" />
  <circle class="neuron" cx="450" cy="100" r="3" />
  <circle class="neuron" cx="430" cy="70" r="5" />
  <circle class="neuron" cx="400" cy="60" r="4" />
  <circle class="neuron" cx="390" cy="90" r="5" />
  <circle class="neuron" cx="410" cy="90" r="3" />
  
  <line class="synapse" x1="370" y1="70" x2="350" y2="100" />
  <line class="synapse" x1="350" y1="100" x2="380" y2="110" />
  <line class="synapse" x1="380" y1="110" x2="390" y2="90" />
  <line class="synapse" x1="390" y1="90" x2="410" y2="90" />
  <line class="synapse" x1="410" y1="90" x2="430" y2="110" />
  <line class="synapse" x1="430" y1="110" x2="450" y2="100" />
  <line class="synapse" x1="450" y1="100" x2="430" y2="70" />
  <line class="synapse" x1="430" y1="70" x2="400" y2="60" />
  <line class="synapse" x1="400" y1="60" x2="370" y2="70" />
  <line class="synapse" x1="390" y1="90" x2="400" y2="60" />
  <line class="synapse" x1="410" y1="90" x2="400" y2="60" />
  
  <!-- Particles -->
  <circle class="particle" cx="340" cy="180" r="2" />
  <circle class="particle" cx="360" cy="190" r="1.5" />
  <circle class="particle" cx="380" cy="185" r="2" />
  <circle class="particle" cx="400" cy="170" r="1" />
  <circle class="particle" cx="420" cy="185" r="2" />
  <circle class="particle" cx="440" cy="190" r="1.5" />
  <circle class="particle" cx="460" cy="180" r="2" />
  
  <!-- Title -->
  <text class="title" x="400" y="350">MIND GONE</text>
  <text class="subtitle" x="400" y="380">Experimental Neural Experience</text>
</svg> 